<?xml version="1.0" standalone="no"?>
<!DOCTYPE svg PUBLIC "-//W3C//DTD SVG 20010904//EN"
 "http://www.w3.org/TR/2001/REC-SVG-20010904/DTD/svg10.dtd">
<svg version="1.0" xmlns="http://www.w3.org/2000/svg"
 width="460.000000pt" height="460.000000pt" viewBox="0 0 460.000000 460.000000"
 preserveAspectRatio="xMidYMid meet">
<metadata>
Created by potrace 1.11, written by Peter Selinger 2001-2013
</metadata>
<g transform="translate(0.000000,460.000000) scale(0.100000,-0.100000)"
fill="#000000" stroke="none">
<path d="M2909 3003 c-4 -9 -12 -16 -329 -265 -58 -46 -157 -124 -221 -175
l-116 -91 -20 36 c-11 20 -34 62 -50 92 -16 30 -49 90 -72 132 l-42 77 -97
-50 c-53 -29 -115 -62 -137 -74 -22 -13 -83 -45 -136 -73 -52 -27 -124 -66
-160 -85 -107 -59 -252 -135 -285 -151 -17 -8 -35 -19 -38 -25 -4 -6 -16 -11
-27 -11 -11 0 -17 -5 -14 -10 4 -6 46 -9 108 -7 79 3 110 8 137 24 191 109
604 323 610 316 8 -8 63 -109 111 -202 27 -51 27 -55 11 -67 -9 -6 -32 -25
-51 -42 l-34 -30 91 0 c51 0 95 4 98 9 3 5 42 37 87 71 84 63 301 234 463 365
51 40 96 73 101 73 6 0 21 -14 34 -32 13 -17 35 -45 49 -62 14 -17 30 -38 37
-46 155 -199 255 -326 281 -356 14 -17 29 -20 85 -21 37 0 67 2 67 6 0 6 -85
117 -130 169 -11 13 -57 72 -102 130 -45 59 -85 109 -88 112 -3 3 -46 57 -95
120 -107 137 -122 154 -126 143z"/>
<path d="M412 2244 c-71 -15 -106 -29 -143 -55 l-29 -20 0 41 0 41 -67 -3 -68
-3 0 -180 0 -180 68 -1 67 -2 0 40 0 39 28 -19 c75 -54 286 -75 416 -42 74 18
88 27 64 41 -9 5 -24 16 -32 24 -12 13 -19 13 -49 0 -49 -20 -142 -27 -204
-14 -71 14 -116 46 -127 90 -17 71 39 129 144 150 45 9 63 18 79 40 l22 29
-56 -2 c-30 -1 -81 -8 -113 -14z"/>
<path d="M1044 2245 c-189 -42 -264 -170 -161 -278 49 -52 132 -79 252 -82
221 -4 351 62 360 183 5 62 -33 114 -110 151 -74 35 -243 48 -341 26z m237
-68 c48 -20 69 -47 73 -95 7 -89 -66 -138 -205 -136 -113 1 -169 43 -169 125
0 59 37 96 120 122 28 9 147 -1 181 -16z"/>
<path d="M1649 2252 l-36 -3 1 -181 1 -182 235 0 235 -1 0 30 0 30 -165 1
-165 0 -3 151 -3 151 -32 3 c-17 2 -48 3 -68 1z"/>
<path d="M2200 2205 c-3 -263 -2 -308 8 -314 8 -5 77 -6 117 -2 6 1 10 68 10
181 l0 180 -25 1 c-14 0 -44 1 -68 2 l-42 2 0 -50z"/>
<path d="M3357 2080 c-81 -98 -147 -182 -147 -187 0 -8 137 -10 143 -2 2 2 14
19 26 37 l22 32 135 0 c74 0 134 -3 134 -7 0 -5 11 -21 23 -37 22 -27 29 -29
95 -30 40 -1 72 1 72 4 0 3 -43 57 -96 120 -53 63 -120 145 -149 181 -83 103
-81 104 -258 -111z m223 -8 l40 -62 -90 0 -89 0 36 53 c42 63 55 79 59 74 2
-2 22 -31 44 -65z"/>
<path d="M4367 2245 c-2 -5 -3 -54 -2 -107 1 -54 -2 -98 -5 -98 -6 0 -207 122
-299 181 -28 18 -58 29 -80 29 l-37 0 1 -176 c0 -118 4 -177 12 -182 9 -6 79
-8 111 -3 5 0 8 47 7 104 -1 56 0 105 2 109 2 4 45 -20 96 -53 50 -33 99 -62
107 -66 8 -4 26 -14 40 -23 85 -58 122 -77 147 -76 l28 1 1 183 c0 100 -2 182
-5 183 -54 5 -122 2 -124 -6z"/>
<path d="M2551 2198 c-11 -29 -43 -107 -71 -173 -28 -66 -52 -124 -53 -129 -2
-10 108 -15 122 -6 4 3 25 47 46 98 21 51 42 89 46 85 4 -4 39 -49 76 -98 94
-125 91 -125 207 29 11 15 30 39 41 53 l21 25 38 -96 c21 -53 43 -97 49 -97
52 -5 109 -4 113 2 2 4 -9 38 -25 76 -17 37 -50 115 -74 173 l-44 105 -39 3
-39 2 -67 -102 c-37 -57 -70 -111 -74 -120 -3 -10 -10 -16 -14 -13 -4 3 -43
57 -85 120 -76 113 -78 115 -116 115 -36 0 -38 -2 -58 -52z"/>
<path d="M102 1797 l3 -22 2195 0 c2188 0 2195 0 2195 20 0 20 -7 20 -2198 22
l-2198 3 3 -23z"/>
<path d="M1577 1703 c-76 -39 -35 -129 53 -118 43 6 70 31 70 66 0 51 -70 80
-123 52z m80 -24 c7 -7 13 -24 11 -38 -2 -19 -11 -28 -35 -35 -36 -10 -57 1
-66 35 -12 44 50 70 90 38z"/>
<path d="M2207 1696 c-39 -34 -41 -54 -7 -88 27 -26 35 -29 68 -24 40 8 72 37
72 67 0 19 -35 58 -54 60 -6 1 -21 3 -33 4 -11 1 -32 -7 -46 -19z m91 -19 c32
-25 -2 -80 -46 -74 -29 4 -54 40 -45 64 11 30 59 35 91 10z"/>
<path d="M3573 1696 c-16 -13 -29 -33 -30 -44 -2 -24 39 -65 69 -69 34 -5 77
17 93 46 12 23 11 29 -3 47 -34 42 -92 51 -129 20z m93 -17 c19 -15 18 -38 -3
-61 -21 -23 -48 -23 -73 2 -46 46 25 101 76 59z"/>
<path d="M934 1698 c-12 -5 -27 -22 -33 -36 -11 -22 -9 -28 11 -48 31 -31 87
-40 113 -19 19 15 19 16 -11 10 -64 -12 -113 34 -74 70 10 9 31 16 47 15 42
-3 50 -1 33 10 -19 12 -59 12 -86 -2z"/>
<path d="M1091 1648 c-23 -37 -36 -65 -29 -67 6 -2 15 4 20 13 11 20 86 22 94
3 4 -12 34 -20 34 -9 0 5 -72 122 -75 122 -1 0 -21 -28 -44 -62z m69 -18 c0
-3 -11 -5 -25 -5 -29 0 -29 0 -14 26 10 20 11 20 24 2 8 -10 15 -20 15 -23z"/>
<path d="M1239 1704 c-7 -62 -6 -115 2 -120 15 -9 22 1 22 31 0 34 21 32 54
-5 14 -16 32 -30 40 -30 20 0 16 12 -12 36 -26 22 -26 22 -6 36 18 13 19 17 8
32 -14 19 -106 36 -108 20z m85 -23 c9 -14 -18 -31 -42 -24 -33 8 -28 33 7 33
17 0 32 -4 35 -9z"/>
<path d="M1391 1650 c1 -67 13 -77 74 -66 44 9 62 30 44 52 -8 9 -12 27 -11
39 3 25 -18 35 -75 35 l-33 0 1 -60z m80 25 c0 -5 -12 -11 -26 -13 -18 -2 -25
1 -25 13 0 12 7 15 25 13 14 -2 26 -7 26 -13z m7 -39 c19 -12 -4 -36 -34 -36
-19 0 -24 5 -24 25 0 21 4 25 23 23 12 -2 28 -7 35 -12z"/>
<path d="M1730 1644 c0 -48 3 -65 13 -61 6 2 13 17 13 33 3 54 3 55 30 31 15
-12 38 -32 50 -45 13 -13 25 -22 25 -20 4 11 6 105 2 116 -10 26 -23 10 -23
-29 l0 -40 -27 19 c-16 11 -38 30 -50 41 -12 12 -25 21 -28 21 -3 0 -5 -30 -5
-66z"/>
<path d="M1936 1660 c-46 -64 -51 -77 -32 -77 8 0 17 6 20 14 8 20 83 17 94
-3 5 -10 14 -14 21 -9 9 5 9 11 -2 23 -8 10 -25 36 -39 60 l-25 43 -37 -51z
m44 1 c0 -5 2 -15 5 -23 3 -8 -3 -13 -19 -14 -22 -2 -24 0 -14 22 11 24 28 33
28 15z"/>
<path d="M2025 1700 c-4 -6 8 -10 28 -10 l34 0 -2 -50 c-2 -49 10 -74 24 -51
4 6 6 31 6 56 -1 45 -1 45 32 45 18 0 33 5 33 10 0 6 -31 10 -74 10 -41 0 -78
-4 -81 -10z"/>
<path d="M2453 1646 c2 -61 2 -61 32 -62 70 -1 113 33 101 81 -7 26 -51 45
-103 43 l-32 -1 2 -61z m95 32 c22 -22 14 -55 -18 -68 -44 -18 -56 -9 -52 39
4 37 7 41 31 41 15 0 32 -5 39 -12z"/>
<path d="M2620 1647 l0 -63 60 0 c33 0 60 3 60 8 0 8 -36 12 -71 9 -9 -1 -19
7 -22 19 -4 17 0 20 29 20 19 0 34 5 34 10 0 6 -13 10 -30 10 -20 0 -30 5 -30
15 0 11 12 15 45 15 25 0 45 5 45 10 0 6 -27 10 -60 10 l-60 0 0 -63z"/>
<path d="M2890 1703 c-29 -11 -50 -36 -50 -60 0 -32 54 -66 95 -58 47 9 54 25
9 21 -43 -4 -74 15 -74 45 0 23 29 39 69 39 17 0 31 4 31 8 0 9 -58 13 -80 5z"/>
<path d="M3040 1657 c-19 -28 -39 -55 -44 -58 -4 -4 -2 -10 4 -14 8 -5 18 -1
25 8 15 21 83 23 91 4 4 -12 34 -20 34 -9 0 4 -72 122 -74 122 -1 0 -17 -24
-36 -53z m56 -24 c-6 -6 -46 -12 -46 -7 0 3 5 15 11 26 11 21 12 21 25 3 8
-10 12 -20 10 -22z"/>
<path d="M3176 1698 c-2 -7 -3 -35 -3 -63 l2 -50 58 -2 c39 -1 57 2 54 10 -2
7 -20 10 -44 9 l-41 -3 0 38 c0 63 -2 73 -12 73 -6 0 -12 -6 -14 -12z"/>
<path d="M3343 1700 c-28 -11 -46 -45 -38 -70 7 -23 51 -47 80 -45 49 4 55 6
55 16 0 7 -11 8 -30 4 -21 -5 -39 -2 -55 9 -48 32 -19 76 48 76 31 0 38 3 27
10 -18 12 -57 12 -87 0z"/>
<path d="M3483 1648 c1 -39 7 -63 15 -66 9 -3 12 14 12 62 0 50 -3 66 -14 66
-11 0 -14 -14 -13 -62z"/>
</g>
</svg>
